<svg id="Compie_Horizonal" xmlns="http://www.w3.org/2000/svg" width="159.553" height="32" viewBox="0 0 159.553 32">
  <g id="Group_32" data-name="Group 32" transform="translate(31.047)">
    <path id="Path_22" data-name="Path 22" d="M938.537-1328.052A10.955,10.955,0,0,1,927.594-1339a10.955,10.955,0,0,1,10.943-10.943A10.955,10.955,0,0,1,949.48-1339,10.955,10.955,0,0,1,938.537-1328.052Zm0-18.513a7.579,7.579,0,0,0-7.57,7.57,7.579,7.579,0,0,0,7.57,7.57,7.579,7.579,0,0,0,7.57-7.57A7.579,7.579,0,0,0,938.537-1346.565Z" transform="translate(-905.018 1354.506)"/>
    <path id="Path_23" data-name="Path 23" d="M1902.015-1355.345a10.955,10.955,0,0,0-10.941,10.815h-.057v16.929h3.373v-8.961a10.906,10.906,0,0,0,7.626,3.1,10.955,10.955,0,0,0,10.943-10.943A10.955,10.955,0,0,0,1902.015-1355.345Zm0,18.513a7.579,7.579,0,0,1-7.57-7.57,7.579,7.579,0,0,1,7.57-7.57,7.579,7.579,0,0,1,7.57,7.57A7.579,7.579,0,0,1,1902.015-1336.832Z" transform="translate(-1812.806 1359.601)"/>
    <g id="Group_28" data-name="Group 28" transform="translate(101.736)">
      <rect id="Rectangle_13" data-name="Rectangle 13" width="3.373" height="20.491" transform="translate(0.028 5.503)"/>
      <rect id="Rectangle_14" data-name="Rectangle 14" width="3.373" height="3.373"/>
    </g>
    <g id="Group_29" data-name="Group 29" transform="translate(45.951 4.736)">
      <path id="Path_24" data-name="Path 24" d="M1358.245-1347.029a9.745,9.745,0,0,0-8.057,4.267,9.745,9.745,0,0,0-8.057-4.267,9.76,9.76,0,0,0-9.749,9.749v11.663h3.373v-11.663a6.384,6.384,0,0,1,6.377-6.376,6.383,6.383,0,0,1,6.37,6.138c0,.08-.006.158-.006.238v11.663h3.385v-11.663c0-.08,0-.158-.006-.238a6.383,6.383,0,0,1,6.37-6.138,6.378,6.378,0,0,1,5.434,3.045,10.544,10.544,0,0,1,1.794-3.2A9.726,9.726,0,0,0,1358.245-1347.029Z" transform="translate(-1332.383 1347.029)"/>
    </g>
    <g id="Group_30" data-name="Group 30" transform="translate(0 4.256)">
      <path id="Path_25" data-name="Path 25" d="M547.592-1336.833a7.579,7.579,0,0,1-7.57-7.57,7.579,7.579,0,0,1,7.57-7.57,7.571,7.571,0,0,1,6.619,3.909H557.9a10.96,10.96,0,0,0-10.31-7.282,10.955,10.955,0,0,0-10.943,10.943,10.955,10.955,0,0,0,10.943,10.943,10.96,10.96,0,0,0,10.31-7.282H554.21A7.571,7.571,0,0,1,547.592-1336.833Z" transform="translate(-536.649 1355.346)"/>
    </g>
    <g id="Group_31" data-name="Group 31" transform="translate(106.619 4.256)">
      <path id="Path_26" data-name="Path 26" d="M2393.918-1336.833a7.581,7.581,0,0,1-7.535-6.84h15.069a.057.057,0,0,0,0,.009h3.384c.016-.245.025-.491.025-.74a10.955,10.955,0,0,0-10.943-10.943,10.955,10.955,0,0,0-10.943,10.943,10.955,10.955,0,0,0,10.943,10.943,10.96,10.96,0,0,0,10.311-7.282h-3.689A7.573,7.573,0,0,1,2393.918-1336.833Zm0-15.141a7.582,7.582,0,0,1,7.093,4.928h-14.187A7.582,7.582,0,0,1,2393.918-1351.973Z" transform="translate(-2382.975 1355.346)"/>
    </g>
  </g>
  <g id="Group_33" data-name="Group 33" transform="translate(0 0)">
    <path id="Path_27" data-name="Path 27" d="M18.09-1307.234l-6.03,6.051-6.03-6.051L0-1301.182l6.03,6.051,6.03,6.051,6.03-6.051,6.03-6.051Z" transform="translate(0 1315.074)"/>
    <rect id="Rectangle_15" data-name="Rectangle 15" width="5.517" height="5.517" transform="translate(14.194 3.901) rotate(-45)"/>
  </g>
</svg>
